<?xml version="1.0" encoding="utf-8"?>
<!-- Generator: Adobe Illustrator 16.0.0, SVG Export Plug-In . SVG Version: 6.00 Build 0)  -->
<!DOCTYPE svg PUBLIC "-//W3C//DTD SVG 1.1 Tiny//EN" "http://www.w3.org/Graphics/SVG/1.1/DTD/svg11-tiny.dtd">
<svg version="1.1" baseProfile="tiny" id="图层_1"
	 xmlns="http://www.w3.org/2000/svg" xmlns:xlink="http://www.w3.org/1999/xlink" x="0px" y="0px" width="576px" height="640px"
	 viewBox="0 0 576 640" xml:space="preserve">
<line fill="none" stroke="#000000" stroke-width="2" stroke-miterlimit="10" x1="32" y1="479" x2="32" y2="543"/>
<line fill="none" stroke="#000000" stroke-width="2" stroke-miterlimit="10" x1="32" y1="31" x2="32" y2="95"/>
<line fill="none" stroke="#000000" stroke-width="2" stroke-miterlimit="10" x1="32" y1="223" x2="32" y2="159"/>
<line fill="none" stroke="#000000" stroke-width="2" stroke-miterlimit="10" x1="32" y1="351" x2="32" y2="415"/>
<line fill="none" stroke="#000000" stroke-width="2" stroke-miterlimit="10" x1="32" y1="223" x2="32" y2="287"/>
<line fill="none" stroke="#000000" stroke-width="2" stroke-miterlimit="10" x1="32" y1="95" x2="32" y2="159"/>
<line fill="none" stroke="#000000" stroke-width="2" stroke-miterlimit="10" x1="32" y1="607" x2="32" y2="543"/>
<line fill="none" stroke="#000000" stroke-width="2" stroke-miterlimit="10" x1="32" y1="479" x2="32" y2="415"/>
<line fill="none" stroke="#000000" stroke-width="2" stroke-miterlimit="10" x1="32" y1="351" x2="32" y2="287"/>
<line fill="none" stroke="#000000" stroke-width="2" stroke-miterlimit="10" x1="96" y1="479" x2="96" y2="543"/>
<line fill="none" stroke="#000000" stroke-width="2" stroke-miterlimit="10" x1="96" y1="607" x2="96" y2="543"/>
<line fill="none" stroke="#000000" stroke-width="2" stroke-miterlimit="10" x1="96" y1="415" x2="96" y2="479"/>
<line fill="none" stroke="#000000" stroke-width="2" stroke-miterlimit="10" x1="96" y1="351" x2="96" y2="415"/>
<line fill="none" stroke="#000000" stroke-width="2" stroke-miterlimit="10" x1="96" y1="31" x2="96" y2="95"/>
<line fill="none" stroke="#000000" stroke-width="2" stroke-miterlimit="10" x1="96" y1="95" x2="96" y2="159"/>
<line fill="none" stroke="#000000" stroke-width="2" stroke-miterlimit="10" x1="96" y1="223" x2="96" y2="287"/>
<line fill="none" stroke="#000000" stroke-width="2" stroke-miterlimit="10" x1="96" y1="159" x2="96" y2="223"/>
<line fill="none" stroke="#000000" stroke-width="2" stroke-miterlimit="10" x1="160" y1="223" x2="160" y2="287"/>
<line fill="none" stroke="#000000" stroke-width="2" stroke-miterlimit="10" x1="160" y1="159" x2="160" y2="223"/>
<line fill="none" stroke="#000000" stroke-width="2" stroke-miterlimit="10" x1="160" y1="351" x2="160" y2="415"/>
<line fill="none" stroke="#000000" stroke-width="2" stroke-miterlimit="10" x1="160" y1="607" x2="160" y2="543"/>
<line fill="none" stroke="#000000" stroke-width="2" stroke-miterlimit="10" x1="160" y1="31" x2="160" y2="95"/>
<line fill="none" stroke="#000000" stroke-width="2" stroke-miterlimit="10" x1="160" y1="415" x2="160" y2="479"/>
<line fill="none" stroke="#000000" stroke-width="2" stroke-miterlimit="10" x1="160" y1="543" x2="160" y2="479"/>
<line fill="none" stroke="#000000" stroke-width="2" stroke-miterlimit="10" x1="160" y1="95" x2="160" y2="159"/>
<line fill="none" stroke="#000000" stroke-width="2" stroke-miterlimit="10" x1="224" y1="543" x2="224" y2="479"/>
<line fill="none" stroke="#000000" stroke-width="2" stroke-miterlimit="10" x1="224" y1="95" x2="224" y2="159"/>
<line fill="none" stroke="#000000" stroke-width="2" stroke-miterlimit="10" x1="224" y1="607" x2="224" y2="543"/>
<line fill="none" stroke="#000000" stroke-width="2" stroke-miterlimit="10" x1="224" y1="159" x2="224" y2="223"/>
<line fill="none" stroke="#000000" stroke-width="2" stroke-miterlimit="10" x1="224" y1="223" x2="224" y2="287"/>
<line fill="none" stroke="#000000" stroke-width="2" stroke-miterlimit="10" x1="224" y1="31" x2="224" y2="95"/>
<line fill="none" stroke="#000000" stroke-width="2" stroke-miterlimit="10" x1="224" y1="351" x2="224" y2="415"/>
<line fill="none" stroke="#000000" stroke-width="2" stroke-miterlimit="10" x1="224" y1="479" x2="224" y2="415"/>
<line fill="none" stroke="#000000" stroke-width="2" stroke-miterlimit="10" x1="288" y1="415" x2="288" y2="351"/>
<line fill="none" stroke="#000000" stroke-width="2" stroke-miterlimit="10" x1="288" y1="31" x2="288" y2="95"/>
<line fill="none" stroke="#000000" stroke-width="2" stroke-miterlimit="10" x1="288" y1="159" x2="288" y2="223"/>
<line fill="none" stroke="#000000" stroke-width="2" stroke-miterlimit="10" x1="288" y1="479" x2="288" y2="415"/>
<line fill="none" stroke="#000000" stroke-width="2" stroke-miterlimit="10" x1="288" y1="223" x2="288" y2="287"/>
<line fill="none" stroke="#000000" stroke-width="2" stroke-miterlimit="10" x1="288" y1="607" x2="288" y2="543"/>
<line fill="none" stroke="#000000" stroke-width="2" stroke-miterlimit="10" x1="288" y1="95" x2="288" y2="159"/>
<line fill="none" stroke="#000000" stroke-width="2" stroke-miterlimit="10" x1="288" y1="543" x2="288" y2="479"/>
<line fill="none" stroke="#000000" stroke-width="2" stroke-miterlimit="10" x1="352" y1="95" x2="352" y2="159"/>
<line fill="none" stroke="#000000" stroke-width="2" stroke-miterlimit="10" x1="352" y1="159" x2="352" y2="223"/>
<line fill="none" stroke="#000000" stroke-width="2" stroke-miterlimit="10" x1="352" y1="31" x2="352" y2="95"/>
<line fill="none" stroke="#000000" stroke-width="2" stroke-miterlimit="10" x1="352" y1="543" x2="352" y2="479"/>
<line fill="none" stroke="#000000" stroke-width="2" stroke-miterlimit="10" x1="352" y1="607" x2="352" y2="543"/>
<line fill="none" stroke="#000000" stroke-width="2" stroke-miterlimit="10" x1="352" y1="287" x2="352" y2="223"/>
<line fill="none" stroke="#000000" stroke-width="2" stroke-miterlimit="10" x1="352" y1="479" x2="352" y2="415"/>
<line fill="none" stroke="#000000" stroke-width="2" stroke-miterlimit="10" x1="352" y1="415" x2="352" y2="351"/>
<line fill="none" stroke="#000000" stroke-width="2" stroke-miterlimit="10" x1="416" y1="543" x2="416" y2="479"/>
<line fill="none" stroke="#000000" stroke-width="2" stroke-miterlimit="10" x1="416" y1="415" x2="416" y2="351"/>
<line fill="none" stroke="#000000" stroke-width="2" stroke-miterlimit="10" x1="416" y1="479" x2="416" y2="415"/>
<line fill="none" stroke="#000000" stroke-width="2" stroke-miterlimit="10" x1="416" y1="95" x2="416" y2="159"/>
<line fill="none" stroke="#000000" stroke-width="2" stroke-miterlimit="10" x1="416" y1="223" x2="416" y2="159"/>
<line fill="none" stroke="#000000" stroke-width="2" stroke-miterlimit="10" x1="416" y1="31" x2="416" y2="95"/>
<line fill="none" stroke="#000000" stroke-width="2" stroke-miterlimit="10" x1="416" y1="287" x2="416" y2="223"/>
<line fill="none" stroke="#000000" stroke-width="2" stroke-miterlimit="10" x1="416" y1="607" x2="416" y2="543"/>
<line fill="none" stroke="#000000" stroke-width="2" stroke-miterlimit="10" x1="480" y1="479" x2="480" y2="415"/>
<line fill="none" stroke="#000000" stroke-width="2" stroke-miterlimit="10" x1="480" y1="415" x2="480" y2="351"/>
<line fill="none" stroke="#000000" stroke-width="2" stroke-miterlimit="10" x1="480" y1="543" x2="480" y2="479"/>
<line fill="none" stroke="#000000" stroke-width="2" stroke-miterlimit="10" x1="480" y1="607" x2="480" y2="543"/>
<line fill="none" stroke="#000000" stroke-width="2" stroke-miterlimit="10" x1="480" y1="31" x2="480" y2="95"/>
<line fill="none" stroke="#000000" stroke-width="2" stroke-miterlimit="10" x1="480" y1="287" x2="480" y2="223"/>
<line fill="none" stroke="#000000" stroke-width="2" stroke-miterlimit="10" x1="480" y1="223" x2="480" y2="159"/>
<line fill="none" stroke="#000000" stroke-width="2" stroke-miterlimit="10" x1="480" y1="159" x2="480" y2="95"/>
<line fill="none" stroke="#000000" stroke-width="2" stroke-miterlimit="10" x1="544" y1="31" x2="544" y2="95"/>
<line fill="none" stroke="#000000" stroke-width="2" stroke-miterlimit="10" x1="544" y1="159" x2="544" y2="95"/>
<line fill="none" stroke="#000000" stroke-width="2" stroke-miterlimit="10" x1="544" y1="159" x2="544" y2="223"/>
<line fill="none" stroke="#000000" stroke-width="2" stroke-miterlimit="10" x1="544" y1="415" x2="544" y2="479"/>
<line fill="none" stroke="#000000" stroke-width="2" stroke-miterlimit="10" x1="544" y1="287" x2="544" y2="351"/>
<line fill="none" stroke="#000000" stroke-width="2" stroke-miterlimit="10" x1="544" y1="415" x2="544" y2="351"/>
<line fill="none" stroke="#000000" stroke-width="2" stroke-miterlimit="10" x1="544" y1="543" x2="544" y2="479"/>
<line fill="none" stroke="#000000" stroke-width="2" stroke-miterlimit="10" x1="544" y1="543" x2="544" y2="607"/>
<line fill="none" stroke="#000000" stroke-width="2" stroke-miterlimit="10" x1="544" y1="287" x2="544" y2="223"/>
<line fill="none" stroke="#000000" stroke-width="2" stroke-miterlimit="10" x1="481" y1="32" x2="417" y2="32"/>
<line fill="none" stroke="#000000" stroke-width="2" stroke-miterlimit="10" x1="545" y1="32" x2="481" y2="32"/>
<line fill="none" stroke="#000000" stroke-width="2" stroke-miterlimit="10" x1="289" y1="32" x2="225" y2="32"/>
<line fill="none" stroke="#000000" stroke-width="2" stroke-miterlimit="10" x1="417" y1="32" x2="353" y2="32"/>
<line fill="none" stroke="#000000" stroke-width="2" stroke-miterlimit="10" x1="97" y1="32" x2="33" y2="32"/>
<line fill="none" stroke="#000000" stroke-width="2" stroke-miterlimit="10" x1="161" y1="32" x2="97" y2="32"/>
<line fill="none" stroke="#000000" stroke-width="2" stroke-miterlimit="10" x1="225" y1="32" x2="161" y2="32"/>
<line fill="none" stroke="#000000" stroke-width="2" stroke-miterlimit="10" x1="353" y1="32" x2="289" y2="32"/>
<line fill="none" stroke="#000000" stroke-width="2" stroke-miterlimit="10" x1="289" y1="96" x2="225" y2="96"/>
<line fill="none" stroke="#000000" stroke-width="2" stroke-miterlimit="10" x1="417" y1="96" x2="353" y2="96"/>
<line fill="none" stroke="#000000" stroke-width="2" stroke-miterlimit="10" x1="353" y1="96" x2="289" y2="96"/>
<line fill="none" stroke="#000000" stroke-width="2" stroke-miterlimit="10" x1="481" y1="96" x2="417" y2="96"/>
<line fill="none" stroke="#000000" stroke-width="2" stroke-miterlimit="10" x1="545" y1="96" x2="481" y2="96"/>
<line fill="none" stroke="#000000" stroke-width="2" stroke-miterlimit="10" x1="225" y1="96" x2="161" y2="96"/>
<line fill="none" stroke="#000000" stroke-width="2" stroke-miterlimit="10" x1="97" y1="96" x2="33" y2="96"/>
<line fill="none" stroke="#000000" stroke-width="2" stroke-miterlimit="10" x1="161" y1="96" x2="97" y2="96"/>
<line fill="none" stroke="#000000" stroke-width="2" stroke-miterlimit="10" x1="417" y1="160" x2="353" y2="160"/>
<line fill="none" stroke="#000000" stroke-width="2" stroke-miterlimit="10" x1="481" y1="160" x2="417" y2="160"/>
<line fill="none" stroke="#000000" stroke-width="2" stroke-miterlimit="10" x1="545" y1="160" x2="481" y2="160"/>
<line fill="none" stroke="#000000" stroke-width="2" stroke-miterlimit="10" x1="353" y1="160" x2="289" y2="160"/>
<line fill="none" stroke="#000000" stroke-width="2" stroke-miterlimit="10" x1="33" y1="160" x2="97" y2="160"/>
<line fill="none" stroke="#000000" stroke-width="2" stroke-miterlimit="10" x1="161" y1="160" x2="97" y2="160"/>
<line fill="none" stroke="#000000" stroke-width="2" stroke-miterlimit="10" x1="289" y1="160" x2="225" y2="160"/>
<line fill="none" stroke="#000000" stroke-width="2" stroke-miterlimit="10" x1="225" y1="160" x2="161" y2="160"/>
<line fill="none" stroke="#000000" stroke-width="2" stroke-miterlimit="10" x1="97" y1="224" x2="161" y2="224"/>
<line fill="none" stroke="#000000" stroke-width="2" stroke-miterlimit="10" x1="289" y1="224" x2="225" y2="224"/>
<line fill="none" stroke="#000000" stroke-width="2" stroke-miterlimit="10" x1="353" y1="224" x2="289" y2="224"/>
<line fill="none" stroke="#000000" stroke-width="2" stroke-miterlimit="10" x1="417" y1="224" x2="353" y2="224"/>
<line fill="none" stroke="#000000" stroke-width="2" stroke-miterlimit="10" x1="33" y1="224" x2="97" y2="224"/>
<line fill="none" stroke="#000000" stroke-width="2" stroke-miterlimit="10" x1="225" y1="224" x2="161" y2="224"/>
<line fill="none" stroke="#000000" stroke-width="2" stroke-miterlimit="10" x1="545" y1="224" x2="481" y2="224"/>
<line fill="none" stroke="#000000" stroke-width="2" stroke-miterlimit="10" x1="481" y1="224" x2="417" y2="224"/>
<line fill="none" stroke="#000000" stroke-width="2" stroke-miterlimit="10" x1="289" y1="288" x2="225" y2="288"/>
<line fill="none" stroke="#000000" stroke-width="2" stroke-miterlimit="10" x1="97" y1="288" x2="161" y2="288"/>
<line fill="none" stroke="#000000" stroke-width="2" stroke-miterlimit="10" x1="417" y1="288" x2="353" y2="288"/>
<line fill="none" stroke="#000000" stroke-width="2" stroke-miterlimit="10" x1="481" y1="288" x2="417" y2="288"/>
<line fill="none" stroke="#000000" stroke-width="2" stroke-miterlimit="10" x1="33" y1="288" x2="97" y2="288"/>
<line fill="none" stroke="#000000" stroke-width="2" stroke-miterlimit="10" x1="353" y1="288" x2="289" y2="288"/>
<line fill="none" stroke="#000000" stroke-width="2" stroke-miterlimit="10" x1="161" y1="288" x2="225" y2="288"/>
<line fill="none" stroke="#000000" stroke-width="2" stroke-miterlimit="10" x1="545" y1="288" x2="481" y2="288"/>
<line fill="none" stroke="#000000" stroke-width="2" stroke-miterlimit="10" x1="545" y1="352" x2="481" y2="352"/>
<line fill="none" stroke="#000000" stroke-width="2" stroke-miterlimit="10" x1="161" y1="352" x2="225" y2="352"/>
<line fill="none" stroke="#000000" stroke-width="2" stroke-miterlimit="10" x1="353" y1="352" x2="289" y2="352"/>
<line fill="none" stroke="#000000" stroke-width="2" stroke-miterlimit="10" x1="481" y1="352" x2="417" y2="352"/>
<line fill="none" stroke="#000000" stroke-width="2" stroke-miterlimit="10" x1="33" y1="352" x2="97" y2="352"/>
<line fill="none" stroke="#000000" stroke-width="2" stroke-miterlimit="10" x1="417" y1="352" x2="353" y2="352"/>
<line fill="none" stroke="#000000" stroke-width="2" stroke-miterlimit="10" x1="225" y1="352" x2="289" y2="352"/>
<line fill="none" stroke="#000000" stroke-width="2" stroke-miterlimit="10" x1="97" y1="352" x2="161" y2="352"/>
<line fill="none" stroke="#000000" stroke-width="2" stroke-miterlimit="10" x1="97" y1="416" x2="161" y2="416"/>
<line fill="none" stroke="#000000" stroke-width="2" stroke-miterlimit="10" x1="417" y1="416" x2="353" y2="416"/>
<line fill="none" stroke="#000000" stroke-width="2" stroke-miterlimit="10" x1="289" y1="416" x2="353" y2="416"/>
<line fill="none" stroke="#000000" stroke-width="2" stroke-miterlimit="10" x1="545" y1="416" x2="481" y2="416"/>
<line fill="none" stroke="#000000" stroke-width="2" stroke-miterlimit="10" x1="225" y1="416" x2="289" y2="416"/>
<line fill="none" stroke="#000000" stroke-width="2" stroke-miterlimit="10" x1="481" y1="416" x2="417" y2="416"/>
<line fill="none" stroke="#000000" stroke-width="2" stroke-miterlimit="10" x1="161" y1="416" x2="225" y2="416"/>
<line fill="none" stroke="#000000" stroke-width="2" stroke-miterlimit="10" x1="33" y1="416" x2="97" y2="416"/>
<line fill="none" stroke="#000000" stroke-width="2" stroke-miterlimit="10" x1="353" y1="480" x2="417" y2="480"/>
<line fill="none" stroke="#000000" stroke-width="2" stroke-miterlimit="10" x1="545" y1="480" x2="481" y2="480"/>
<line fill="none" stroke="#000000" stroke-width="2" stroke-miterlimit="10" x1="481" y1="480" x2="417" y2="480"/>
<line fill="none" stroke="#000000" stroke-width="2" stroke-miterlimit="10" x1="225" y1="480" x2="289" y2="480"/>
<line fill="none" stroke="#000000" stroke-width="2" stroke-miterlimit="10" x1="33" y1="480" x2="97" y2="480"/>
<line fill="none" stroke="#000000" stroke-width="2" stroke-miterlimit="10" x1="289" y1="480" x2="353" y2="480"/>
<line fill="none" stroke="#000000" stroke-width="2" stroke-miterlimit="10" x1="161" y1="480" x2="225" y2="480"/>
<line fill="none" stroke="#000000" stroke-width="2" stroke-miterlimit="10" x1="97" y1="480" x2="161" y2="480"/>
<line fill="none" stroke="#000000" stroke-width="2" stroke-miterlimit="10" x1="161" y1="544" x2="225" y2="544"/>
<line fill="none" stroke="#000000" stroke-width="2" stroke-miterlimit="10" x1="97" y1="544" x2="161" y2="544"/>
<line fill="none" stroke="#000000" stroke-width="2" stroke-miterlimit="10" x1="225" y1="544" x2="289" y2="544"/>
<line fill="none" stroke="#000000" stroke-width="2" stroke-miterlimit="10" x1="33" y1="544" x2="97" y2="544"/>
<line fill="none" stroke="#000000" stroke-width="2" stroke-miterlimit="10" x1="545" y1="544" x2="481" y2="544"/>
<line fill="none" stroke="#000000" stroke-width="2" stroke-miterlimit="10" x1="289" y1="544" x2="353" y2="544"/>
<line fill="none" stroke="#000000" stroke-width="2" stroke-miterlimit="10" x1="417" y1="544" x2="481" y2="544"/>
<line fill="none" stroke="#000000" stroke-width="2" stroke-miterlimit="10" x1="353" y1="544" x2="417" y2="544"/>
<line fill="none" stroke="#000000" stroke-width="2" stroke-miterlimit="10" x1="353" y1="608" x2="417" y2="608"/>
<line fill="none" stroke="#000000" stroke-width="2" stroke-linecap="square" stroke-miterlimit="10" x1="32" y1="608" x2="99" y2="608"/>
<line fill="none" stroke="#000000" stroke-width="2" stroke-miterlimit="10" x1="97" y1="608" x2="161" y2="608"/>
<line fill="none" stroke="#000000" stroke-width="2" stroke-miterlimit="10" x1="289" y1="608" x2="353" y2="608"/>
<line fill="none" stroke="#000000" stroke-width="2" stroke-miterlimit="10" x1="161" y1="608" x2="225" y2="608"/>
<line fill="none" stroke="#000000" stroke-width="2" stroke-miterlimit="10" x1="481" y1="608" x2="545" y2="608"/>
<line fill="none" stroke="#000000" stroke-width="2" stroke-miterlimit="10" x1="417" y1="608" x2="481" y2="608"/>
<line fill="none" stroke="#000000" stroke-width="2" stroke-miterlimit="10" x1="225" y1="608" x2="289" y2="608"/>
<line fill="none" stroke="#000000" stroke-width="2" stroke-miterlimit="10" x1="224" y1="32" x2="352" y2="160"/>
<line fill="none" stroke="#000000" stroke-width="2" stroke-miterlimit="10" x1="224" y1="160" x2="352" y2="32"/>
<line fill="none" stroke="#000000" stroke-width="2" stroke-miterlimit="10" x1="224" y1="480" x2="352" y2="608"/>
<line fill="none" stroke="#000000" stroke-width="2" stroke-miterlimit="10" x1="224" y1="608" x2="352" y2="480"/>
</svg>
